<svg width="162" height="63" viewBox="0 0 162 63" fill="none" xmlns="http://www.w3.org/2000/svg">
<path d="M128.418 24.1369C128.428 24.1369 128.434 24.1421 128.442 24.1421V11.9129C123.424 11.9129 119.119 14.1063 116.17 18.1656L126.084 25.3708C126.622 24.6416 127.446 24.1369 128.418 24.1369Z" fill="#9F2899"/>
<path d="M125.467 27.0885C125.467 26.4348 125.722 25.8609 126.084 25.3708L116.17 18.1656C112.85 22.7353 112.305 28.3791 114.691 33.4957L125.764 28.3343C125.584 27.9525 125.467 27.538 125.467 27.0885Z" fill="#05A1E6"/>
<path d="M128.418 30.0416C127.24 30.0416 126.237 29.3353 125.763 28.3343L114.69 33.4957C117.607 39.7457 124.003 43.1468 130.815 42.0672L128.895 29.9453C128.733 29.9729 128.587 30.0416 128.418 30.0416Z" fill="#51B152"/>
<path d="M128.895 29.9453L130.816 42.0672C137.875 40.95 143.076 35.2719 143.578 28.1427L131.331 27.2875C131.235 28.6525 130.22 29.7208 128.895 29.9453Z" fill="#E28E1F"/>
<path d="M128.442 11.913V24.1422C130.059 24.1552 131.371 25.4698 131.371 27.0886C131.371 27.1588 131.335 27.2182 131.331 27.2875L143.577 28.1427C143.603 27.7396 143.613 27.4854 143.613 27.0854C143.613 18.7052 136.823 11.913 128.442 11.913Z" fill="#C40C42"/>
<path d="M128.42 21.0687C125.094 21.0687 122.399 23.764 122.399 27.0885C122.399 30.414 125.094 33.1099 128.42 33.1099C131.744 33.1099 134.439 30.414 134.439 27.0885C134.439 23.764 131.744 21.0687 128.42 21.0687ZM128.42 24.1369C130.046 24.1369 131.371 25.462 131.371 27.0885C131.371 28.7176 130.046 30.0416 128.42 30.0416C126.791 30.0416 125.467 28.7176 125.467 27.0885C125.467 25.462 126.791 24.1369 128.42 24.1369Z" fill="white"/>
<path d="M128.42 10.3661C119.183 10.3661 111.696 17.8531 111.696 27.0885C111.696 36.3265 119.183 43.812 128.42 43.812C137.656 43.812 145.141 36.3265 145.141 27.0885C145.141 17.8531 137.656 10.3661 128.42 10.3661ZM128.42 13.4339C135.948 13.4339 142.075 19.5593 142.075 27.0885C142.075 34.6181 135.948 40.7443 128.42 40.7443C120.89 40.7443 114.762 34.6181 114.762 27.0885C114.762 19.5593 120.89 13.4339 128.42 13.4339Z" fill="white"/>
<path d="M138.002 1.3432L132.993 0.00146866L130.881 7.88427C132.635 8.10667 134.32 8.54893 135.895 9.20827L138.002 1.3432Z" fill="white"/>
<path d="M143.82 15.3563L149.591 9.58481L145.924 5.91761L140.152 11.6896C141.533 12.7437 142.765 13.9755 143.82 15.3563Z" fill="white"/>
<path d="M116.688 11.6927L110.913 5.91762L107.245 9.58482L113.021 15.3609C114.076 13.9791 115.306 12.7473 116.688 11.6927Z" fill="white"/>
<path d="M123.844 3.8147e-06L118.835 1.3432L120.943 9.2104C122.519 8.55094 124.204 8.10827 125.957 7.88534L123.844 3.8147e-06Z" fill="white"/>
<path d="M118.835 52.8369L123.844 54.1781L125.957 46.2937C124.204 46.0697 122.519 45.6287 120.943 44.9681L118.835 52.8369Z" fill="white"/>
<path d="M140.151 42.4891L145.924 48.2624L149.591 44.5957L143.819 38.8239C142.764 40.2041 141.532 41.4359 140.151 42.4891Z" fill="white"/>
<path d="M132.993 54.1781L138.002 52.8369L135.895 44.9708C134.32 45.6296 132.635 46.0724 130.881 46.2953L132.993 54.1781Z" fill="white"/>
<path d="M0 52.4619C0 46.5515 4.22812 42.2963 10.1099 42.2963C15.262 42.2963 19.1828 45.5167 20.05 50.4448H14.7297C14.086 48.54 12.3495 47.3369 10.2219 47.3369C7.42188 47.3369 5.40469 49.4656 5.40469 52.4619C5.40469 55.4578 7.42188 57.5854 10.2219 57.5854C12.4052 57.5854 14.1979 56.2979 14.8136 54.2807H20.1068C19.2932 59.3213 15.3453 62.626 10.1099 62.626C4.22812 62.626 0 58.3692 0 52.4619Z" fill="white"/>
<path d="M35.4304 42.6609H39.4351V62.2625H34.1419V57.4734L34.3387 52.3213L27.1138 62.2625H23.0532V42.6609H28.3179V48.1192L28.1496 52.6286L35.4304 42.6609Z" fill="white"/>
<path d="M50.1657 51.7614H52.2381V47.3916H50.1657C48.7391 47.3916 47.8974 48.1495 47.8974 49.5776C47.8974 51.0062 48.7391 51.7614 50.1657 51.7614ZM57.4465 42.6609V62.2625H52.1823V55.5125L48.0094 62.2625H42.1006V61.6739L46.4418 55.1755C43.9777 54.2536 42.5495 52.1244 42.5495 49.2405C42.5495 45.1807 45.4063 42.6609 49.9141 42.6609H57.4465Z" fill="white"/>
<path d="M72.6286 42.6609H77.9207V62.2625H72.6286V54.8968H66.8046V62.2625H61.54V42.6609H66.8046V49.8291H72.6286V42.6609Z" fill="white"/>
<path d="M94.3649 42.6609H98.3686V62.2625H93.0769V57.4734L93.2722 52.3213L86.0472 62.2625H81.9873V42.6609H87.2514V48.1192L87.0837 52.6286L94.3649 42.6609Z" fill="white"/>
<path d="M107.644 57.5854H115.485V62.2625H102.436V42.6609H115.262V47.252H107.644V50.1937H114.674V54.7H107.644V57.5854Z" fill="white"/>
<path d="M0 27.9911C0 22.0817 4.22812 17.8265 10.1099 17.8265C15.262 17.8265 19.1828 21.0463 20.05 25.9749H14.7297C14.086 24.0703 12.3495 22.8667 10.2219 22.8667C7.42188 22.8667 5.40469 24.9948 5.40469 27.9911C5.40469 30.9869 7.42188 33.1161 10.2219 33.1161C12.4052 33.1161 14.1979 31.8271 14.8136 29.8109H20.1068C19.2932 34.8509 15.3453 38.1557 10.1099 38.1557C4.22812 38.1557 0 33.8995 0 27.9911Z" fill="white"/>
<path d="M28.2616 33.1161H36.1023V37.7927H23.0532V18.19H35.8788V22.7812H28.2616V25.7229H35.2908V30.2291H28.2616V33.1161Z" fill="white"/>
<path d="M47.7569 33.2833C48.8479 33.2833 49.4927 32.5823 49.4927 31.5181C49.4927 30.4265 48.8479 29.7536 47.7569 29.7536H44.5651V33.2833H47.7569ZM44.5651 22.502V25.6385H47.2246C48.3178 25.6385 48.9334 25.0776 48.9334 24.0979C48.9334 23.0905 48.3178 22.502 47.2246 22.502H44.5651ZM54.7011 32.1635C54.7011 35.5244 52.1537 37.7927 48.2058 37.7927H39.5527V18.19H48.0641C51.5375 18.19 53.9173 20.3167 53.9173 23.5093C53.9173 25.1067 53.2454 26.5353 52.0974 27.4577C53.7214 28.438 54.7011 30.1744 54.7011 32.1635Z" fill="white"/>
<path d="M62.827 33.1161H70.6676V37.7927H57.6196V18.19H70.4452V22.7812H62.827V25.7229H69.8567V30.2291H62.827V33.1161Z" fill="white"/>
<path d="M81.4254 27.6547C82.9379 27.6547 83.8062 26.7301 83.8062 25.3291C83.8062 23.9009 82.9379 22.9787 81.4254 22.9787H79.3254V27.6547H81.4254ZM81.9302 18.19C86.2697 18.19 89.0707 20.962 89.0707 25.2744C89.0707 29.5588 86.2697 32.3307 81.9302 32.3307H79.3811V37.7927H74.1177V18.19H81.9302Z" fill="white"/>
<path d="M102.823 18.19H108.117V37.7927H102.823V30.4265H97.0004V37.7927H91.7358V18.19H97.0004V25.3588H102.823V18.19Z" fill="white"/>
<path d="M154.143 33.1161H161.983V37.7927H148.935V18.19H161.76V22.7812H154.143V25.7229H161.171V30.2291H154.143V33.1161Z" fill="white"/>
</svg>
