<svg width="35" height="49" viewBox="0 0 35 49" fill="none" xmlns="http://www.w3.org/2000/svg">
<path d="M7.24848 8.11465H4.72596C3.78001 8.11465 2.83407 7.49045 2.83407 6.55414H8.50974C8.19443 6.86624 7.5638 7.80255 7.24848 8.11465ZM14.816 28.0892C15.1314 28.4013 15.4467 28.7134 16.0773 29.0255V30.8981C10.0863 36.2038 23.6449 38.3885 23.0142 43.6943C23.0142 45.2548 21.1224 46.8153 19.5458 47.4395C20.807 46.8153 21.4377 45.5669 21.4377 44.3185C21.753 41.5096 15.1314 38.7006 15.4467 38.7006C10.717 35.5796 10.4016 31.8344 14.816 28.0892ZM16.3926 29.0255C17.0233 29.6497 17.9692 30.2739 18.5998 30.8981V37.7643L16.3926 36.2038V29.0255ZM33.4197 3.43312C33.4197 3.43312 27.744 4.36943 27.1133 4.36943C25.8521 4.68153 25.2215 6.55414 26.4827 7.49045C28.0593 9.05095 27.744 10.6115 26.4827 11.8599C26.4827 12.172 24.2755 9.36306 23.6449 9.05095C23.6449 9.05095 23.9602 8.73885 23.6449 8.42675C22.3836 6.55414 23.0142 4.99363 24.2755 4.05732C25.8521 2.49682 30.2665 1.24841 32.4737 0.624204C33.4197 0.312102 34.0503 0 34.6809 0C35.3115 1.56051 34.9962 2.80892 33.4197 3.43312ZM9.14037 6.24204C9.14037 5.30573 8.50974 4.68153 7.87911 4.36943C5.67191 4.05732 -1.58035 4.05732 0.311544 0C0.311544 0 2.20344 0.624204 4.72596 1.24841C6.30254 1.87261 7.87911 2.18471 9.45569 2.80892C11.3476 3.43312 11.9782 4.99363 11.9782 6.55414C11.9782 7.80255 11.0323 8.42675 11.3476 9.05095C10.4016 9.98726 9.45569 10.9236 8.50974 12.172V11.8599C5.67191 9.05095 9.14037 7.49045 9.14037 6.24204ZM31.2124 6.24204H26.4827V5.61783C26.798 5.30573 27.4287 5.30573 28.6899 4.99363C30.2665 4.68153 32.4737 4.36943 33.4197 4.05732C33.1043 5.30573 32.4737 5.92994 31.2124 6.24204ZM26.1674 16.8535C29.3206 19.0382 28.3746 22.4713 26.1674 24.656C24.5908 25.5924 22.3836 26.8408 20.4917 27.7771C19.8611 27.465 19.5458 27.1529 19.2305 26.8408V24.9682C20.1764 24.656 21.1224 24.0318 22.0683 23.4076C27.4287 19.9745 21.753 18.1019 22.0683 20.5987C17.6539 19.6624 22.0683 13.7325 26.1674 16.8535ZM15.762 14.3567H19.2305L18.9151 26.5287C17.9692 25.9045 17.0233 25.5924 16.0773 24.9682C16.0773 21.2229 16.0773 17.7898 15.762 14.3567ZM9.14037 24.656C3.14938 19.3503 11.0323 13.4204 14.1854 17.1656C15.762 18.7261 13.8701 20.2866 13.2395 20.2866C13.5548 17.7898 7.24848 19.6624 12.9242 23.4076C15.4467 24.656 17.9692 26.2166 20.1764 28.0892C21.4377 29.0255 22.6989 30.2739 23.0142 31.8344C23.6449 34.9554 21.753 36.828 19.5458 38.3885C19.2305 38.0764 18.9151 38.0764 18.9151 38.0764V35.8917C24.5908 30.586 11.9782 27.1529 9.14037 24.656ZM18.5998 40.8853C18.2845 43.3822 18.2845 45.5669 18.2845 48.0637C18.2845 48.6879 17.9692 49 17.3386 49C17.0233 49 16.7079 48.6879 16.7079 48.3758C16.7079 45.5669 16.3926 42.758 16.3926 40.2611C15.1314 41.1975 13.5548 42.4459 13.5548 44.0064C13.8701 46.1911 15.4467 47.1274 15.4467 47.1274C14.1854 46.5032 11.9782 45.5669 11.9782 43.3822C11.9782 41.8217 12.9242 40.2611 15.1314 38.7006C16.0773 39.3248 17.3386 39.949 18.5998 40.8853ZM28.0593 13.4204C28.0593 13.7325 28.0593 14.0446 27.744 14.0446H7.24848C6.61785 13.7325 6.61785 13.4204 6.61785 13.4204C9.45569 13.4204 12.2935 6.24204 17.3386 5.92994C21.1224 5.92994 23.6449 9.36306 25.8521 11.8599C26.4827 12.7962 27.1133 13.4204 28.0593 13.4204ZM32.1584 6.55414C32.1584 7.49045 30.8971 8.11465 30.2665 8.11465H27.744C27.4287 7.49045 26.798 7.17834 26.4827 6.55414H32.1584ZM30.5818 8.42675C30.2665 10.2994 29.3206 10.6115 27.744 10.9236C28.0593 10.2994 28.0593 9.36306 27.744 8.42675H30.5818ZM7.24848 10.9236C5.98722 10.9236 4.72596 9.98726 4.41064 8.73885C4.41064 8.42675 6.93317 8.42675 7.24848 8.42675C6.93317 9.36306 6.93317 10.2994 7.24848 10.9236ZM8.50974 6.24204H3.78001C2.51875 5.92994 1.88812 5.30573 1.88812 4.05732C2.20344 4.05732 3.4647 4.36943 4.72596 4.68153C6.30254 4.99363 8.19443 4.99363 8.50974 5.30573V6.24204Z" fill="#005493"/>
</svg>
