<svg width="29" height="35" viewBox="0 0 29 35" fill="none" xmlns="http://www.w3.org/2000/svg">
<path d="M8.92792 12.3301C8.54392 12.6061 8.05192 12.8041 7.45192 12.9241C6.86392 13.0441 6.25792 13.1041 5.63392 13.1041C4.87792 13.1041 4.15792 12.9901 3.47392 12.7621C2.80192 12.5221 2.20792 12.1441 1.69192 11.6281C1.17592 11.1001 0.761918 10.4221 0.449918 9.59405C0.149918 8.75405 -8.19862e-05 7.74005 -8.19862e-05 6.55205C-8.19862e-05 5.31605 0.167918 4.28405 0.503918 3.45605C0.851918 2.61605 1.29592 1.94405 1.83592 1.44005C2.38792 0.92405 2.99992 0.55805 3.67192 0.34205C4.34392 0.11405 5.01592 4.99487e-05 5.68792 4.99487e-05C6.40792 4.99487e-05 7.01392 0.04805 7.50592 0.14405C8.00992 0.24005 8.42392 0.35405 8.74792 0.48605L8.26192 2.57405C7.98592 2.44205 7.65592 2.34605 7.27192 2.28605C6.89992 2.22605 6.44392 2.19605 5.90392 2.19605C4.90792 2.19605 4.10392 2.55005 3.49192 3.25805C2.89192 3.96605 2.59192 5.06405 2.59192 6.55205C2.59192 7.20005 2.66392 7.79405 2.80792 8.33405C2.95192 8.86205 3.16792 9.31805 3.45592 9.70205C3.75592 10.0741 4.12192 10.3681 4.55392 10.5841C4.99792 10.7881 5.50792 10.8901 6.08392 10.8901C6.62392 10.8901 7.07992 10.8361 7.45192 10.7281C7.82392 10.6201 8.14792 10.4821 8.42392 10.3141L8.92792 12.3301ZM17.7046 12.8521H9.73061V0.25205H12.1966V10.6561H17.7046V12.8521ZM18.2567 0.25205C18.5087 0.21605 18.7907 0.18605 19.1027 0.16205C19.4267 0.13805 19.7567 0.120051 20.0927 0.108051C20.4287 0.0960501 20.7527 0.0900499 21.0647 0.0900499C21.3887 0.07805 21.6767 0.0720501 21.9287 0.0720501C23.0447 0.0720501 23.9987 0.22805 24.7907 0.540051C25.5827 0.85205 26.2247 1.29005 26.7167 1.85405C27.2087 2.41805 27.5687 3.09005 27.7967 3.87005C28.0247 4.65005 28.1387 5.50805 28.1387 6.44405C28.1387 7.29605 28.0307 8.11805 27.8147 8.91005C27.5987 9.70205 27.2387 10.4041 26.7347 11.0161C26.2307 11.6281 25.5647 12.1201 24.7367 12.4921C23.9207 12.8641 22.9067 13.0501 21.6947 13.0501C21.5027 13.0501 21.2447 13.0441 20.9207 13.0321C20.6087 13.0201 20.2787 13.0021 19.9307 12.9781C19.5947 12.9661 19.2707 12.9481 18.9587 12.9241C18.6467 12.9121 18.4127 12.8941 18.2567 12.8701V0.25205ZM22.1267 2.26805C21.8627 2.26805 21.5927 2.27405 21.3167 2.28605C21.0527 2.29805 20.8547 2.31605 20.7227 2.34005V10.7821C20.7707 10.7941 20.8487 10.8061 20.9567 10.8181C21.0767 10.8181 21.2027 10.8241 21.3347 10.8361C21.4667 10.8361 21.5927 10.8421 21.7127 10.8541C21.8327 10.8541 21.9227 10.8541 21.9827 10.8541C22.6787 10.8541 23.2547 10.7341 23.7107 10.4941C24.1787 10.2421 24.5447 9.91205 24.8087 9.50405C25.0847 9.09605 25.2767 8.62805 25.3847 8.10005C25.4927 7.56005 25.5467 7.00805 25.5467 6.44405C25.5467 5.95205 25.4987 5.46005 25.4027 4.96805C25.3067 4.46405 25.1267 4.01405 24.8627 3.61805C24.6107 3.22205 24.2627 2.89805 23.8187 2.64605C23.3747 2.39405 22.8107 2.26805 22.1267 2.26805ZM7.86592 25.33C7.86592 25.9421 7.75192 26.5601 7.52392 27.1841C7.30792 27.8081 7.02592 28.4201 6.67792 29.0201C6.34192 29.6201 5.96392 30.2021 5.54392 30.7661C5.13592 31.3181 4.73392 31.8281 4.33792 32.2961L3.38392 33.0341V33.1241L4.67992 32.8721H8.13592V34.8521H0.557918V33.6461C0.845918 33.3461 1.16992 32.9981 1.52992 32.6021C1.88992 32.1941 2.24992 31.7681 2.60992 31.3241C2.98192 30.8681 3.34192 30.4001 3.68992 29.9201C4.03792 29.4401 4.34992 28.9601 4.62592 28.4801C4.90192 27.9881 5.11792 27.5141 5.27392 27.0581C5.44192 26.6021 5.52592 26.1701 5.52592 25.7621C5.52592 25.2701 5.38192 24.8681 5.09392 24.5561C4.81792 24.2321 4.37392 24.0701 3.76192 24.0701C3.37792 24.0701 2.98192 24.1541 2.57392 24.3221C2.17792 24.4781 1.84192 24.6821 1.56592 24.9341L0.629918 23.2781C1.09792 22.8941 1.62592 22.5881 2.21392 22.3601C2.81392 22.1201 3.51592 22 4.31992 22C4.83592 22 5.30992 22.0721 5.74192 22.2161C6.17392 22.36 6.54592 22.57 6.85792 22.846C7.16992 23.122 7.41592 23.47 7.59592 23.8901C7.77592 24.2981 7.86592 24.778 7.86592 25.33ZM18.7628 31.3421H16.7828V34.8521H14.6048V31.3421H9.15081V30.0101L14.8568 22.1621H16.7828V29.4701H18.7628V31.3421ZM14.6048 26.7161L14.7668 25.2041H14.6948L14.0828 26.5001L12.2108 28.9301L11.3108 29.6141L12.4628 29.4701H14.6048V26.7161Z" fill="#E6AE05"/>
</svg>
