<svg width="43" height="43" viewBox="0 0 43 43" fill="none" xmlns="http://www.w3.org/2000/svg">
<path d="M21.4735 0C9.61546 0 0 9.47141 0 21.1591C0 32.8468 9.61546 42.315 21.4735 42.315C33.3316 42.315 42.9438 32.8436 42.9438 21.1591C42.9438 9.47467 33.3283 0 21.4735 0Z" fill="#D3B37D"/>
<path d="M26.111 11.9159C26.111 11.9159 26.1044 11.8931 26.1011 11.8833H16.2739L16.3169 12.0104C16.8925 13.7248 17.21 15.563 17.21 17.4729C17.21 19.3829 16.8925 21.2211 16.3169 22.9354L16.2739 23.0626H26.1011C26.1011 23.0626 26.1077 23.0397 26.111 23.03C26.7064 21.2863 27.0372 19.4187 27.0372 17.4697C27.0372 15.5206 26.7097 13.6563 26.111 11.9126" fill="white"/>
<path d="M34.8167 16.3682C34.8167 16.3682 34.8134 16.3552 34.8101 16.3486H28.9092L28.9356 16.4269C29.2796 17.4568 29.4715 18.5617 29.4715 19.7089C29.4715 20.8562 29.2796 21.9578 28.9356 22.991L28.9092 23.0692H34.8101C34.8101 23.0692 34.8134 23.0562 34.8167 23.0497C35.1739 22.0034 35.3724 20.8823 35.3724 19.7122C35.3724 18.5421 35.1739 17.4209 34.8167 16.3747" fill="white"/>
<path d="M13.7799 16.3682C13.7799 16.3682 13.7765 16.3552 13.7732 16.3486H7.87231L7.89878 16.4269C8.24278 17.4568 8.43462 18.5617 8.43462 19.7089C8.43462 20.8562 8.24278 21.9578 7.89878 22.991L7.87231 23.0692H13.7732C13.7732 23.0692 13.7765 23.0562 13.7799 23.0497C14.1371 22.0034 14.3355 20.8823 14.3355 19.7122C14.3355 18.5421 14.1371 17.4209 13.7799 16.3747" fill="white"/>
<path d="M12.2383 12.2907V12.2842H9.92627L9.93619 12.3135C10.0718 12.7177 10.1446 13.1511 10.1446 13.6009C10.1446 14.0507 10.0718 14.4842 9.93619 14.8883L9.92627 14.9177H12.2383V14.9111C12.3773 14.5005 12.4567 14.0605 12.4567 13.6042C12.4567 13.1479 12.3806 12.7046 12.2383 12.2972" fill="white"/>
<path d="M33.0604 12.2907V12.2842H30.7483L30.7582 12.3135C30.8938 12.7177 30.9666 13.1511 30.9666 13.6009C30.9666 14.0507 30.8938 14.4842 30.7582 14.8883L30.7483 14.9177H33.0604V14.9111C33.1993 14.5005 33.2787 14.0605 33.2787 13.6042C33.2787 13.1479 33.2026 12.7046 33.0604 12.2972" fill="white"/>
<path d="M22.7768 6.70118C22.7768 6.70118 22.7768 6.69467 22.7768 6.69141H19.7502L19.7635 6.73052C19.9421 7.25852 20.038 7.82237 20.038 8.4123C20.038 9.00222 19.9421 9.56607 19.7635 10.0941L19.7502 10.1332H22.7768C22.7768 10.1332 22.7768 10.1267 22.7768 10.1234C22.9587 9.58563 23.0612 9.012 23.0612 8.4123C23.0612 7.81259 22.9587 7.23896 22.7768 6.70118Z" fill="white"/>
<path d="M31.3106 31.5954L34.6745 25.2333L7.87231 25.1812L11.7423 31.5432H21.0799V33.8671C20.5275 34.0659 20.1306 34.5841 20.1306 35.2001C20.1306 35.9367 20.6995 36.5332 21.4272 36.6081C21.4735 36.6114 21.5165 36.6244 21.5662 36.6244C21.5662 36.6244 21.5662 36.6244 21.5695 36.6244C21.5728 36.6244 21.5695 36.6244 21.5728 36.6244C22.3699 36.6244 23.0182 35.9889 23.0182 35.2001C23.0182 34.5841 22.6213 34.0659 22.0656 33.8671V31.5465L31.3106 31.5986V31.5954Z" fill="white"/>
</svg>
