<svg width="20" height="20" viewBox="0 0 20 20" fill="none" xmlns="http://www.w3.org/2000/svg">
<path d="M5.39593 0.75H2.64474C1.5983 0.75 0.75 1.5983 0.75 2.64474C0.75 11.5394 7.96057 18.75 16.8553 18.75C17.9017 18.75 18.75 17.9017 18.75 16.8553V14.1041C18.75 13.2863 18.2521 12.5508 17.4928 12.2471L14.8571 11.1928C14.1751 10.92 13.3983 11.0431 12.834 11.5134L12.1531 12.0807C11.3584 12.743 10.19 12.69 9.45852 11.9585L7.54148 10.0415C6.81004 9.31005 6.75704 8.14155 7.41925 7.3469L7.98664 6.66603C8.45693 6.10169 8.57998 5.32495 8.30715 4.64288L7.25289 2.00722C6.94916 1.2479 6.21374 0.75 5.39593 0.75Z" stroke="#05A1E6" stroke-width="1.5" stroke-linecap="round" stroke-linejoin="round"/>
</svg>
